<svg width="165" height="44" viewBox="0 0 165 44" fill="none" xmlns="http://www.w3.org/2000/svg">
<path d="M61.9881 7.25185L56.5439 20.1027C56.4975 20.2075 56.451 20.3006 56.393 20.382C56.3234 20.4635 56.2537 20.545 56.1608 20.6032C56.068 20.6614 55.9751 20.708 55.8822 20.7312C55.7778 20.7662 55.6733 20.7778 55.5688 20.7778C55.4643 20.7778 55.3715 20.7662 55.267 20.7312C55.1742 20.708 55.0813 20.6614 55 20.6032C54.9071 20.545 54.8259 20.4752 54.7563 20.382C54.6866 20.3006 54.6286 20.2075 54.5821 20.1027C52.5739 16.0752 50.7049 11.035 48.894 6.80959H51.0068L55.5572 17.4022L60.0496 6.80959H62.1855L61.9881 7.25185ZM73.6196 20.3937L69.2898 10.0688L64.809 20.5916H62.6266C64.4259 16.3545 66.3065 11.2678 68.3147 7.24027C68.3611 7.13551 68.4192 7.04233 68.4889 6.96085C68.5585 6.87936 68.6397 6.80953 68.721 6.75133C68.8022 6.69313 68.8951 6.64659 68.9996 6.62331C69.0924 6.58838 69.1969 6.57677 69.3014 6.57677C69.4059 6.57677 69.5104 6.58838 69.6148 6.62331C69.7193 6.65823 69.8122 6.69313 69.8934 6.75133C69.9863 6.80953 70.0675 6.89102 70.1371 6.9725C70.2068 7.05398 70.2532 7.1471 70.2997 7.2635L75.9296 20.6032H73.7242L73.6196 20.3937ZM89.3372 18.9387V20.5916H80.1087C79.9578 20.5916 79.8184 20.5683 79.6907 20.5101C79.5514 20.4519 79.4354 20.382 79.3309 20.2773C79.2265 20.1725 79.1453 20.0561 79.0988 19.9281C79.0408 19.8 79.0175 19.6604 79.0175 19.509V6.79794H80.9908V18.6127H89.3489V18.9387H89.3372ZM95.0949 8.77672V12.6995H103.232V14.6783H95.0949V18.6127H103.755V20.5916H94.2243C94.0734 20.5916 93.9341 20.5683 93.7948 20.5101C93.6555 20.4519 93.5395 20.382 93.435 20.2773C93.3305 20.1725 93.2492 20.0561 93.2027 19.9281C93.1447 19.8 93.1215 19.6604 93.1215 19.509V7.89212C93.1215 7.7408 93.1447 7.60106 93.2027 7.47302C93.2608 7.34498 93.3305 7.22859 93.435 7.12383C93.5395 7.01906 93.6555 6.93757 93.7948 6.89101C93.9225 6.84445 94.0618 6.80959 94.2243 6.80959H103.755V8.78837H95.0949V8.77672ZM119.948 7.25185L114.504 20.1027C114.458 20.2075 114.411 20.3006 114.353 20.382C114.283 20.4635 114.202 20.545 114.121 20.6032C114.028 20.6614 113.935 20.708 113.842 20.7312C113.738 20.7662 113.633 20.7778 113.529 20.7778C113.424 20.7778 113.331 20.7662 113.227 20.7312C113.134 20.708 113.041 20.6614 112.96 20.6032C112.867 20.545 112.786 20.4752 112.716 20.382C112.647 20.3006 112.589 20.2075 112.542 20.1027C110.534 16.0752 108.665 11.035 106.854 6.80959H108.967L113.517 17.4022L118.01 6.80959H120.146L119.948 7.25185ZM129.328 8.77672V18.6127H133.437V20.5916H123.222V18.6127H127.354V8.77672H123.222V6.79794H133.437V8.77672H129.328ZM143.803 20.7894C143.176 20.7894 142.561 20.708 141.981 20.545C141.389 20.3821 140.831 20.1376 140.286 19.8117C139.752 19.4858 139.264 19.1132 138.835 18.6709C138.405 18.2286 138.034 17.7397 137.721 17.1926C137.407 16.6455 137.163 16.0635 137.012 15.4698C136.85 14.8645 136.78 14.2476 136.78 13.5958C136.78 12.9439 136.861 12.327 137.012 11.7334C137.175 11.1397 137.407 10.5693 137.721 10.0339C138.034 9.49843 138.405 9.02119 138.835 8.5905C139.264 8.17146 139.74 7.79896 140.274 7.48467C140.808 7.17038 141.377 6.93761 141.957 6.78629C142.549 6.63496 143.153 6.55347 143.792 6.55347C144.314 6.55347 144.825 6.6117 145.324 6.7281C145.823 6.8445 146.299 7.01905 146.775 7.25185C147.239 7.48466 147.68 7.75239 148.075 8.06668C148.47 8.38097 148.83 8.73021 149.166 9.12598L149.363 9.37038L147.878 10.6508L147.669 10.3947C147.437 10.1037 147.17 9.836 146.891 9.6032C146.612 9.37039 146.299 9.17249 145.951 8.99788C145.614 8.82328 145.266 8.70693 144.906 8.61381C144.546 8.53233 144.175 8.48571 143.792 8.48571C143.327 8.48571 142.886 8.54393 142.457 8.64869C142.039 8.76509 141.632 8.92806 141.249 9.16086C140.866 9.38203 140.518 9.64976 140.205 9.96404C139.891 10.2783 139.624 10.6276 139.404 11.0117C139.171 11.3958 139.009 11.8149 138.893 12.2455C138.777 12.6762 138.719 13.1302 138.719 13.6074C138.719 14.0847 138.777 14.5503 138.893 14.981C139.009 15.4117 139.171 15.8307 139.404 16.2381C139.636 16.6455 139.903 17.0064 140.205 17.3207C140.518 17.635 140.855 17.9143 141.249 18.1471C141.632 18.38 142.039 18.5545 142.457 18.6709C142.875 18.7873 143.316 18.8455 143.78 18.8455C144.221 18.8455 144.651 18.799 145.045 18.7059C145.452 18.6127 145.835 18.4731 146.194 18.2868C146.554 18.1006 146.879 17.8794 147.17 17.6233C147.46 17.3672 147.715 17.0762 147.936 16.7387L148.121 16.4593L149.677 17.6582L149.503 17.9143C149.178 18.3683 148.818 18.7757 148.412 19.1249C148.005 19.4741 147.553 19.7768 147.042 20.0329C146.543 20.2889 146.009 20.4752 145.463 20.6032C144.964 20.7196 144.395 20.7894 143.803 20.7894ZM165 7.12383V20.5916H163.026V14.6783H155.179V20.5916H153.206V6.79794H155.179V12.6995H163.026V6.79794H165V7.12383Z" fill="#282C4B"/>
<path d="M53.7463 29.4613C54.3615 29.4613 54.9187 29.6126 55.4295 29.9269C55.9402 30.2412 56.3465 30.6602 56.6483 31.184C56.9501 31.7078 57.1011 32.2782 57.1011 32.8952C57.1011 33.5005 56.9501 34.0475 56.6483 34.5597C56.3465 35.0602 55.9402 35.456 55.4295 35.747C54.9187 36.038 54.3499 36.1777 53.7463 36.1777H50.4147V39.4603H49.4048V30.0317C49.4048 29.8687 49.4628 29.729 49.5673 29.6243C49.6834 29.5079 49.8227 29.4613 49.9968 29.4613H53.7463ZM53.7463 35.165C54.1758 35.165 54.5705 35.0603 54.9303 34.8624C55.2902 34.6645 55.5804 34.3851 55.7777 34.0359C55.9867 33.6867 56.0912 33.3026 56.0912 32.8952C56.0912 32.4645 55.9867 32.057 55.7777 31.6962C55.5688 31.3237 55.2786 31.0328 54.9187 30.8116C54.5589 30.5904 54.1642 30.4856 53.7463 30.4856H50.4147V35.1767H53.7463V35.165ZM64.4839 35.7354H61.3497V39.4719H60.3398V30.0433C60.3398 29.8803 60.3979 29.7407 60.5023 29.6359C60.6184 29.5195 60.7577 29.4729 60.9318 29.4729H65.0064C65.5868 29.4729 66.1091 29.6243 66.5967 29.9153C67.0842 30.2063 67.4673 30.6021 67.7459 31.1026C68.0361 31.6031 68.1754 32.1386 68.1754 32.709C68.1754 33.2095 68.0593 33.675 67.8387 34.1057C67.6181 34.5248 67.3048 34.8857 66.9101 35.165C66.5154 35.4444 66.0743 35.6189 65.5868 35.7004L68.2217 39.4835H67.0725L64.4839 35.7354ZM61.3497 34.7576H65.0064C65.4126 34.7576 65.7724 34.6645 66.1091 34.4782C66.4341 34.292 66.7012 34.0476 66.8869 33.7217C67.0726 33.4074 67.1771 33.0581 67.1771 32.6857C67.1771 32.2899 67.0842 31.9174 66.8869 31.5798C66.6895 31.2423 66.4341 30.9745 66.1091 30.765C65.7841 30.5555 65.4241 30.4623 65.0295 30.4623H61.373V34.7576H61.3497ZM76.3591 39.5999C75.4421 39.5999 74.5947 39.3671 73.817 38.9015C73.0392 38.4359 72.4124 37.8073 71.9597 37.0041C71.4954 36.201 71.2747 35.3396 71.2747 34.3851C71.2747 33.4422 71.507 32.5809 71.9597 31.801C72.4124 31.0211 73.0392 30.4041 73.817 29.9502C74.5947 29.4962 75.4421 29.2634 76.3707 29.2634C77.2878 29.2634 78.1353 29.4846 78.9246 29.9386C79.7024 30.3925 80.3292 31.0094 80.7819 31.7893C81.2347 32.5692 81.4668 33.4422 81.4668 34.3851C81.4668 35.3396 81.2347 36.2126 80.7819 37.0041C80.3292 37.7957 79.714 38.4243 78.9246 38.8899C78.1353 39.3672 77.2878 39.5999 76.3591 39.5999ZM76.3591 38.6338C77.1021 38.6338 77.787 38.4475 78.4138 38.0518C79.0407 37.6676 79.5398 37.1555 79.8997 36.5036C80.2712 35.8518 80.4453 35.1417 80.4453 34.3851C80.4453 33.6285 80.2596 32.9301 79.8997 32.3015C79.5282 31.6613 79.029 31.1608 78.4138 30.7883C77.787 30.4158 77.1021 30.2296 76.3591 30.2296C75.6162 30.2296 74.9314 30.4158 74.3046 30.7883C73.6777 31.1608 73.1785 31.6613 72.8187 32.3015C72.4472 32.9301 72.2615 33.6285 72.2615 34.3851C72.2615 35.1533 72.4472 35.8634 72.8187 36.5036C73.1902 37.1555 73.6892 37.6676 74.3161 38.0518C74.9429 38.4475 75.6278 38.6338 76.3591 38.6338ZM88.5131 29.4613C89.4301 29.4613 90.2775 29.6825 91.0436 30.1248C91.8214 30.5671 92.4249 31.184 92.8893 31.9407C93.342 32.7089 93.5743 33.5471 93.5743 34.455C93.5743 35.3746 93.3536 36.2126 92.9009 36.9809C92.4482 37.7375 91.8446 38.3428 91.0552 38.7968C90.2775 39.2391 89.4301 39.4719 88.5131 39.4719H85.402C85.2511 39.4719 85.1118 39.4137 85.0074 39.3089C84.9029 39.2042 84.8448 39.0645 84.8448 38.9131V30.0317C84.8448 29.8803 84.9029 29.7407 85.0074 29.6359C85.1118 29.5312 85.2511 29.4729 85.4136 29.4729H88.5131V29.4613ZM88.5131 38.4476C89.256 38.4476 89.9409 38.2729 90.5561 37.9121C91.1714 37.5513 91.6589 37.074 92.0072 36.4571C92.367 35.8401 92.5411 35.165 92.5411 34.4317C92.5411 33.6984 92.367 33.0348 92.0072 32.4295C91.6473 31.8242 91.1597 31.347 90.5329 30.9978C89.9177 30.6486 89.2444 30.474 88.5131 30.474H85.8431V38.4476H88.5131ZM101.863 39.4835C101.085 39.4835 100.377 39.2973 99.7266 38.9131C99.0765 38.529 98.5658 38.0168 98.1827 37.3766C97.7996 36.7364 97.6139 36.0264 97.6139 35.2465V29.4496H98.6238V35.2465C98.6238 35.8285 98.7747 36.364 99.0649 36.8529C99.3552 37.3534 99.7499 37.7375 100.249 38.0285C100.737 38.3195 101.282 38.4592 101.863 38.4592C102.443 38.4592 102.989 38.3195 103.476 38.0285C103.964 37.7375 104.358 37.3534 104.648 36.8529C104.939 36.364 105.078 35.8169 105.078 35.2465V29.4496H106.088V35.2465C106.088 36.0148 105.891 36.7248 105.519 37.365C105.136 38.0169 104.625 38.529 103.975 38.9015C103.325 39.2973 102.617 39.4835 101.863 39.4835ZM114.423 39.6116C113.506 39.6116 112.658 39.3787 111.869 38.9131C111.091 38.4475 110.464 37.8073 110.011 37.0158C109.559 36.2126 109.327 35.3512 109.327 34.3967C109.327 33.4539 109.559 32.5925 110.011 31.8126C110.464 31.0327 111.091 30.4158 111.869 29.9735C112.647 29.5195 113.494 29.2983 114.423 29.2983C115.189 29.2983 115.908 29.4613 116.582 29.7989C117.255 30.1365 117.835 30.5904 118.311 31.1608L117.557 31.8126C117.174 31.3354 116.721 30.9629 116.164 30.6835C115.618 30.4041 115.026 30.2761 114.411 30.2761C113.668 30.2761 112.983 30.4623 112.356 30.8232C111.729 31.184 111.23 31.6846 110.871 32.3132C110.511 32.9417 110.325 33.6401 110.325 34.4084C110.325 35.1766 110.511 35.8867 110.871 36.5269C111.242 37.1788 111.729 37.6909 112.356 38.0634C112.983 38.4359 113.668 38.6338 114.411 38.6338C115.119 38.6338 115.769 38.4825 116.361 38.1915C116.953 37.8888 117.429 37.4697 117.789 36.9343L118.59 37.5396C118.126 38.2031 117.534 38.7153 116.814 39.0761C116.083 39.4253 115.293 39.6116 114.423 39.6116ZM129.444 30.474H125.741V39.4603H124.731V30.474H121.028V29.4613H129.455V30.474H129.444ZM136.838 30.474V38.4476H139.972V39.4603H132.694V38.4476H135.84V30.474H132.694V29.4613H139.972V30.474H136.838ZM147.959 39.5999C147.042 39.5999 146.194 39.3671 145.417 38.9015C144.639 38.4359 144.012 37.8073 143.559 37.0041C143.095 36.201 142.874 35.3396 142.874 34.3851C142.874 33.4422 143.107 32.5809 143.559 31.801C144.012 31.0211 144.639 30.4041 145.417 29.9502C146.194 29.4962 147.042 29.2634 147.971 29.2634C148.888 29.2634 149.735 29.4846 150.524 29.9386C151.302 30.3925 151.929 31.0094 152.382 31.7893C152.834 32.5692 153.067 33.4422 153.067 34.3851C153.067 35.3396 152.834 36.2126 152.382 37.0041C151.929 37.7957 151.314 38.4243 150.524 38.8899C149.735 39.3672 148.888 39.5999 147.959 39.5999ZM147.959 38.6338C148.702 38.6338 149.387 38.4475 150.014 38.0518C150.64 37.6676 151.14 37.1555 151.499 36.5036C151.871 35.8518 152.045 35.1417 152.045 34.3851C152.045 33.6285 151.859 32.9301 151.499 32.3015C151.128 31.6613 150.629 31.1608 150.014 30.7883C149.387 30.4158 148.702 30.2296 147.959 30.2296C147.216 30.2296 146.531 30.4158 145.904 30.7883C145.277 31.1608 144.778 31.6613 144.418 32.3015C144.047 32.9301 143.861 33.6285 143.861 34.3851C143.861 35.1533 144.047 35.8634 144.418 36.5036C144.79 37.1555 145.289 37.6676 145.916 38.0518C146.543 38.4475 147.228 38.6338 147.959 38.6338ZM164.582 29.4613V39.0179C164.582 39.1925 164.524 39.3322 164.419 39.4486C164.303 39.5534 164.164 39.6116 163.99 39.6116C163.804 39.6116 163.642 39.5301 163.514 39.3788L157.164 31.091V39.4603H156.154V29.8454C156.154 29.6825 156.212 29.5428 156.317 29.4264C156.433 29.3216 156.572 29.2634 156.746 29.2634C156.932 29.2634 157.095 29.3449 157.222 29.4962L163.572 37.8423V29.4613H164.582Z" fill="#282C4B"/>
<path fill-rule="evenodd" clip-rule="evenodd" d="M0 0H43.8792V44H0V0ZM10.8189 32.7323V13.9916L6.10595 9.26564L6.11757 9.25399L12.4092 2.94501L15.5087 6.05293L12.3164 9.25399L13.779 10.7207H13.7906L18.1786 15.1206H18.167L28.3822 25.364V15.1206H21.4405L17.0525 10.7207H32.7702V29.764C34.256 31.254 35.7535 32.7555 37.2393 34.2455L31.1217 40.3799L28.0224 37.272L31.0289 34.2571L29.5082 32.7323L25.1203 28.3323L15.2069 18.3915V28.3323H21.8584L26.2463 32.7323H10.8189Z" fill="#282C4B"/>
</svg>
